<?xml version="1.0" standalone="no"?>
<!DOCTYPE svg PUBLIC "-//W3C//DTD SVG 20010904//EN"
 "http://www.w3.org/TR/2001/REC-SVG-20010904/DTD/svg10.dtd">
<svg version="1.0" xmlns="http://www.w3.org/2000/svg"
 width="1280.000000pt" height="720.000000pt" viewBox="0 0 1280.000000 720.000000"
 preserveAspectRatio="xMidYMid meet">
<metadata>
Created by potrace 1.15, written by Peter Selinger 2001-2017
</metadata>
<g transform="translate(0.000000,720.000000) scale(0.100000,-0.100000)"
fill="#000000" stroke="none">
<path d="M3112 6575 c-127 -28 -206 -94 -254 -212 l-23 -58 -3 -2665 c-2
-1895 0 -2684 8 -2730 21 -122 81 -215 168 -259 93 -47 78 -46 1282 -46 1069
0 1138 1 1195 18 144 44 222 138 245 295 6 40 10 525 10 1205 0 751 3 1137 10
1137 6 0 10 132 10 375 0 243 -4 375 -10 375 -14 0 -13 227 1 232 13 4 13 350
-1 358 -5 3 -10 355 -12 850 -3 761 -5 850 -20 895 -39 114 -108 183 -223 223
-46 15 -144 17 -1185 19 -937 1 -1146 -1 -1198 -12z m2526 -3022 l-3 -2398
-1352 -3 -1353 -2 0 2400 0 2400 1355 0 1355 0 -2 -2397z"/>
<path d="M6496 6569 c-164 -21 -260 -104 -304 -261 -16 -59 -17 -222 -17
-2713 0 -2846 -2 -2722 50 -2825 32 -62 100 -122 171 -151 l59 -24 1140 -3
c822 -2 1157 0 1200 8 134 26 219 99 267 230 l23 65 3 1178 c2 750 6 1177 12
1177 6 0 10 138 10 370 0 240 -4 370 -10 370 -6 0 -10 47 -10 120 0 73 4 120
10 120 6 0 10 67 10 180 0 113 -4 180 -10 180 -7 0 -10 272 -10 796 0 534 -4
819 -11 867 -31 196 -133 295 -331 317 -105 12 -2157 11 -2252 -1z m2484
-3029 l0 -2400 -1350 0 -1350 0 0 2400 0 2400 1350 0 1350 0 0 -2400z"/>
</g>
</svg>
